<?xml version="1.0" encoding="UTF-8" standalone="no"?>
<svg width="430px" height="82px" viewBox="0 0 430 82" version="1.1" xmlns="http://www.w3.org/2000/svg" xmlns:xlink="http://www.w3.org/1999/xlink">
    <!-- Generator: Sketch 3.7.1 (28215) - http://www.bohemiancoding.com/sketch -->
    <title>Logo 1</title>
    <desc>Created with Sketch.</desc>
    <defs>
        <path d="M215.655817,33.7438017 C215.655817,33.7438017 220.315542,37.2292028 223.522907,38.4950274 C226.950814,39.8478912 235.561635,41.5998671 235.561635,41.5998671 C235.561635,41.5998671 226.779757,43.4793876 223.598966,44.7347242 C220.144484,46.0980761 215.655817,49.4559325 215.655817,49.4559325 C215.655817,49.4559325 211.878564,45.9173675 208.297317,44.5039861 C205.243291,43.298679 195.75,41.5998671 195.75,41.5998671 C195.75,41.5998671 204.953716,39.9726635 208.24325,38.6744101 C211.588989,37.353975 215.655817,33.7438017 215.655817,33.7438017 Z" id="path-1"></path>
        <mask id="mask-2" maskContentUnits="userSpaceOnUse" maskUnits="objectBoundingBox" x="0" y="0" width="39.8116349" height="15.7121308" fill="white">
            <use xlink:href="#path-1"></use>
        </mask>
    </defs>
    <g id="Page-1" stroke="none" stroke-width="1" fill="none" fill-rule="evenodd">
        <g id="Logo-1" transform="translate(0.000000, -1.000000)" fill="#000000">
            <text id="antique-arms-&amp;-armor" font-family="PerpetuaTitlingMT-Light, Perpetua Titling MT" font-size="26.2242431" font-weight="300" letter-spacing="5.02499986">
                <tspan x="1.37370852" y="78.5785124">antique arms &amp; armo</tspan>
                <tspan x="413.421929" y="78.5785124">r</tspan>
            </text>
            <use id="Wiebster" stroke="#000000" mask="url(#mask-2)" stroke-width="1.5" xlink:href="#path-1"></use>
            <path d="M1.41174639,41.4361147 L174.000003,41.4361147" id="Line" stroke="#000000" stroke-width="1.5" stroke-linecap="square"></path>
            <path d="M255.75,41.4361147 L428.900546,41.4361147" id="Line" stroke="#000000" stroke-width="1.5" stroke-linecap="square"></path>
            <text id="MANDARIN-MANSION" font-family="PerpetuaTitlingMT-Bold, Perpetua Titling MT" font-size="34.9656575" font-weight="bold" letter-spacing="0.900000036">
                <tspan x="3.33642587" y="26.1404959">MANDARIN MANSIO</tspan>
                <tspan x="398.402578" y="26.1404959">N</tspan>
            </text>
        </g>
    </g>
</svg>